<?xml version="1.0" encoding="UTF-8" standalone="no"?>
<!DOCTYPE svg PUBLIC "-//W3C//DTD SVG 1.1//EN"
 "http://www.w3.org/Graphics/SVG/1.1/DTD/svg11.dtd">
<!-- Generated by graphviz version 2.40.1 (20161225.0304)
 -->
<!-- Title: G Pages: 1 -->
<svg width="949pt" height="638pt"
 viewBox="0.00 0.00 949.00 638.00" xmlns="http://www.w3.org/2000/svg" xmlns:xlink="http://www.w3.org/1999/xlink">
<g id="graph0" class="graph" transform="scale(1 1) rotate(0) translate(4 634)">
<title>G</title>
<polygon fill="#ffffff" stroke="transparent" points="-4,4 -4,-634 945,-634 945,4 -4,4"/>
<g id="clust1" class="cluster">
<title>cluster_root</title>
<g id="a_clust1"><a xlink:title="eventq_index=0&#10;full_system=false&#10;sim_quantum=0&#10;time_sync_enable=false&#10;time_sync_period=100000000000&#10;time_sync_spin_threshold=100000000">
<path fill="#bab6ae" stroke="#000000" d="M20,-8C20,-8 921,-8 921,-8 927,-8 933,-14 933,-20 933,-20 933,-610 933,-610 933,-616 927,-622 921,-622 921,-622 20,-622 20,-622 14,-622 8,-616 8,-610 8,-610 8,-20 8,-20 8,-14 14,-8 20,-8"/>
<text text-anchor="middle" x="470.5" y="-606.8" font-family="Arial" font-size="14.00" fill="#000000">root </text>
<text text-anchor="middle" x="470.5" y="-591.8" font-family="Arial" font-size="14.00" fill="#000000">: Root</text>
</a>
</g>
</g>
<g id="clust2" class="cluster">
<title>cluster_system</title>
<g id="a_clust2"><a xlink:title="boot_osflags=a&#10;cache_line_size=32&#10;eventq_index=0&#10;exit_on_work_items=false&#10;init_param=0&#10;kernel=&#10;kernel_addr_check=true&#10;kernel_extras=&#10;&#10;oad_addr_mask=18446744073709551615&#10;&#10;oad_offset=0&#10;mem_mode=atomic&#10;mem_ranges=0:536870911&#10;memories=system.mem_ctrls&#10;mmap_using_noreserve=false&#10;multi_thread=false&#10;&#10;um_work_ids=16&#10;&#13;eadfile=&#10;&#13;edirect_paths=system.redirect_paths0 system.redirect_paths1 system.redirect_paths2 system.redirect_paths3&#10;symbolfile=&#10;thermal_components=&#10;thermal_model=Null&#10;work_begin_ckpt_count=0&#10;work_begin_cpu_id_exit=&#45;1&#10;work_begin_exit_count=0&#10;work_cpus_ckpt_count=0&#10;work_end_ckpt_count=0&#10;work_end_exit_count=0&#10;work_item_id=&#45;1">
<path fill="#e4e7eb" stroke="#000000" d="M28,-16C28,-16 913,-16 913,-16 919,-16 925,-22 925,-28 925,-28 925,-564 925,-564 925,-570 919,-576 913,-576 913,-576 28,-576 28,-576 22,-576 16,-570 16,-564 16,-564 16,-28 16,-28 16,-22 22,-16 28,-16"/>
<text text-anchor="middle" x="470.5" y="-560.8" font-family="Arial" font-size="14.00" fill="#000000">system </text>
<text text-anchor="middle" x="470.5" y="-545.8" font-family="Arial" font-size="14.00" fill="#000000">: System</text>
</a>
</g>
</g>
<g id="clust3" class="cluster">
<title>cluster_system_membus</title>
<g id="a_clust3"><a xlink:title="clk_domain=system.clk_domain&#10;default_p_state=UNDEFINED&#10;eventq_index=0&#10;forward_latency=4&#10;frontend_latency=3&#10;max_outstanding_snoops=512&#10;max_routing_table_size=512&#10;p_state_clk_gate_bins=20&#10;p_state_clk_gate_max=1000000000000&#10;p_state_clk_gate_min=1000&#10;point_of_coherency=true&#10;point_of_unification=true&#10;power_model=&#10;&#13;esponse_latency=2&#10;snoop_filter=system.membus.snoop_filter&#10;snoop_response_latency=4&#10;system=system&#10;use_default_range=false&#10;width=16">
<path fill="#6f798c" stroke="#000000" d="M107,-354C107,-354 233,-354 233,-354 239,-354 245,-360 245,-366 245,-366 245,-433 245,-433 245,-439 239,-445 233,-445 233,-445 107,-445 107,-445 101,-445 95,-439 95,-433 95,-433 95,-366 95,-366 95,-360 101,-354 107,-354"/>
<text text-anchor="middle" x="170" y="-429.8" font-family="Arial" font-size="14.00" fill="#000000">membus </text>
<text text-anchor="middle" x="170" y="-414.8" font-family="Arial" font-size="14.00" fill="#000000">: SystemXBar</text>
</a>
</g>
</g>
<g id="clust9" class="cluster">
<title>cluster_system_tol2bus</title>
<g id="a_clust9"><a xlink:title="clk_domain=system.cpu_clk_domain&#10;default_p_state=UNDEFINED&#10;eventq_index=0&#10;forward_latency=0&#10;frontend_latency=1&#10;max_outstanding_snoops=512&#10;max_routing_table_size=512&#10;p_state_clk_gate_bins=20&#10;p_state_clk_gate_max=1000000000000&#10;p_state_clk_gate_min=1000&#10;point_of_coherency=false&#10;point_of_unification=true&#10;power_model=&#10;&#13;esponse_latency=1&#10;snoop_filter=system.tol2bus.snoop_filter&#10;snoop_response_latency=1&#10;system=system&#10;use_default_range=false&#10;width=32">
<path fill="#6f798c" stroke="#000000" d="M578,-354C578,-354 704,-354 704,-354 710,-354 716,-360 716,-366 716,-366 716,-433 716,-433 716,-439 710,-445 704,-445 704,-445 578,-445 578,-445 572,-445 566,-439 566,-433 566,-433 566,-366 566,-366 566,-360 572,-354 578,-354"/>
<text text-anchor="middle" x="641" y="-429.8" font-family="Arial" font-size="14.00" fill="#000000">tol2bus </text>
<text text-anchor="middle" x="641" y="-414.8" font-family="Arial" font-size="14.00" fill="#000000">: L2XBar</text>
</a>
</g>
</g>
<g id="clust13" class="cluster">
<title>cluster_system_l2</title>
<g id="a_clust13"><a xlink:title="addr_ranges=0:18446744073709551615&#10;assoc=2&#10;clk_domain=system.cpu_clk_domain&#10;clusivity=mostly_incl&#10;compressor=Null&#10;data_latency=20&#10;default_p_state=UNDEFINED&#10;demand_mshr_reserve=1&#10;eventq_index=0&#10;is_read_only=false&#10;max_miss_count=0&#10;mshrs=20&#10;p_state_clk_gate_bins=20&#10;p_state_clk_gate_max=1000000000000&#10;p_state_clk_gate_min=1000&#10;power_model=&#10;prefetch_on_access=false&#10;prefetcher=Null&#10;&#13;eplacement_policy=system.l2.replacement_policy&#10;&#13;esponse_latency=20&#10;sequential_access=false&#10;size=1048576&#10;system=system&#10;tag_latency=20&#10;tags=system.l2.tags&#10;tgts_per_mshr=12&#10;warmup_percentage=0&#10;write_allocator=Null&#10;write_buffers=8&#10;writeback_clean=false">
<path fill="#bab6ae" stroke="#000000" d="M181,-163C181,-163 351,-163 351,-163 357,-163 363,-169 363,-175 363,-175 363,-242 363,-242 363,-248 357,-254 351,-254 351,-254 181,-254 181,-254 175,-254 169,-248 169,-242 169,-242 169,-175 169,-175 169,-169 175,-163 181,-163"/>
<text text-anchor="middle" x="266" y="-238.8" font-family="Arial" font-size="14.00" fill="#000000">l2 </text>
<text text-anchor="middle" x="266" y="-223.8" font-family="Arial" font-size="14.00" fill="#000000">: L2Cache</text>
</a>
</g>
</g>
<g id="clust18" class="cluster">
<title>cluster_system_mem_ctrls</title>
<g id="a_clust18"><a xlink:title="IDD0=0.055&#10;IDD02=0.0&#10;IDD2N=0.032&#10;IDD2N2=0.0&#10;IDD2P0=0.0&#10;IDD2P02=0.0&#10;IDD2P1=0.032&#10;IDD2P12=0.0&#10;IDD3N=0.038&#10;IDD3N2=0.0&#10;IDD3P0=0.0&#10;IDD3P02=0.0&#10;IDD3P1=0.038&#10;IDD3P12=0.0&#10;IDD4R=0.157&#10;IDD4R2=0.0&#10;IDD4W=0.125&#10;IDD4W2=0.0&#10;IDD5=0.235&#10;IDD52=0.0&#10;IDD6=0.02&#10;IDD62=0.0&#10;VDD=1.5&#10;VDD2=0.0&#10;activation_limit=4&#10;addr_mapping=RoRaBaCoCh&#10;bank_groups_per_rank=0&#10;banks_per_rank=8&#10;burst_length=8&#10;clk_domain=system.clk_domain&#10;conf_table_reported=true&#10;default_p_state=UNDEFINED&#10;device_bus_width=8&#10;device_rowbuffer_size=1024&#10;device_size=536870912&#10;devices_per_rank=8&#10;dll=true&#10;enable_dram_powerdown=false&#10;eventq_index=0&#10;in_addr_map=true&#10;kvm_map=true&#10;max_accesses_per_row=16&#10;mem_sched_policy=frfcfs&#10;min_writes_per_switch=16&#10;&#10;ull=false&#10;p_state_clk_gate_bins=20&#10;p_state_clk_gate_max=1000000000000&#10;p_state_clk_gate_min=1000&#10;page_policy=open_adaptive&#10;power_model=&#10;qos_masters= &#160;&#160;&#160;&#160;&#160;&#160;&#160;&#160;&#160;&#160;&#160;&#160;&#160;&#160;&#10;qos_policy=Null&#10;qos_priorities=1&#10;qos_priority_escalation=false&#10;qos_q_policy=fifo&#10;qos_syncro_scheduler=false&#10;qos_turnaround_policy=Null&#10;&#13;ange=0:536870911&#10;&#13;anks_per_channel=2&#10;&#13;ead_buffer_size=32&#10;static_backend_latency=10000&#10;static_frontend_latency=10000&#10;tBURST=5000&#10;tCCD_L=0&#10;tCCD_L_WR=0&#10;tCK=1250&#10;tCL=13750&#10;tCS=2500&#10;tRAS=35000&#10;tRCD=13750&#10;tREFI=7800000&#10;tRFC=260000&#10;tRP=13750&#10;tRRD=6000&#10;tRRD_L=0&#10;tRTP=7500&#10;tRTW=2500&#10;tWR=15000&#10;tWTR=7500&#10;tXAW=30000&#10;tXP=6000&#10;tXPDLL=0&#10;tXS=270000&#10;tXSDLL=0&#10;write_buffer_size=64&#10;write_high_thresh_perc=85&#10;write_low_thresh_perc=50">
<path fill="#5e5958" stroke="#000000" d="M36,-163C36,-163 149,-163 149,-163 155,-163 161,-169 161,-175 161,-175 161,-242 161,-242 161,-248 155,-254 149,-254 149,-254 36,-254 36,-254 30,-254 24,-248 24,-242 24,-242 24,-175 24,-175 24,-169 30,-163 36,-163"/>
<text text-anchor="middle" x="92.5" y="-238.8" font-family="Arial" font-size="14.00" fill="#000000">mem_ctrls </text>
<text text-anchor="middle" x="92.5" y="-223.8" font-family="Arial" font-size="14.00" fill="#000000">: DDR3_1600_8x8</text>
</a>
</g>
</g>
<g id="clust21" class="cluster">
<title>cluster_system_cpu</title>
<g id="a_clust21"><a xlink:title="branchPred=Null&#10;checker=Null&#10;clk_domain=system.cpu_clk_domain&#10;cpu_id=0&#10;default_p_state=UNDEFINED&#10;do_checkpoint_insts=true&#10;do_quiesce=true&#10;do_statistics_insts=true&#10;dtb=system.cpu.dtb&#10;eventq_index=0&#10;function_trace=false&#10;function_trace_start=0&#10;interrupts=system.cpu.interrupts&#10;isa=system.cpu.isa&#10;itb=system.cpu.itb&#10;max_insts_all_threads=0&#10;max_insts_any_thread=100000000&#10;&#10;umThreads=1&#10;p_state_clk_gate_bins=20&#10;p_state_clk_gate_max=1000000000000&#10;p_state_clk_gate_min=1000&#10;power_gating_on_idle=false&#10;power_model=&#10;profile=0&#10;progress_interval=0&#10;pwr_gating_latency=300&#10;simpoint_start_insts=&#10;simulate_data_stalls=false&#10;simulate_inst_stalls=false&#10;socket_id=0&#10;switched_out=false&#10;syscallRetryLatency=10000&#10;system=system&#10;tracer=system.cpu.tracer&#10;wait_for_remote_gdb=false&#10;width=1&#10;workload=system.cpu.workload">
<path fill="#bbc6d9" stroke="#000000" d="M397,-24C397,-24 903,-24 903,-24 909,-24 915,-30 915,-36 915,-36 915,-334 915,-334 915,-340 909,-346 903,-346 903,-346 397,-346 397,-346 391,-346 385,-340 385,-334 385,-334 385,-36 385,-36 385,-30 391,-24 397,-24"/>
<text text-anchor="middle" x="650" y="-330.8" font-family="Arial" font-size="14.00" fill="#000000">cpu </text>
<text text-anchor="middle" x="650" y="-315.8" font-family="Arial" font-size="14.00" fill="#000000">: AtomicSimpleCPU</text>
</a>
</g>
</g>
<g id="clust22" class="cluster">
<title>cluster_system_cpu_icache</title>
<g id="a_clust22"><a xlink:title="addr_ranges=0:18446744073709551615&#10;assoc=2&#10;clk_domain=system.cpu_clk_domain&#10;clusivity=mostly_incl&#10;compressor=Null&#10;data_latency=2&#10;default_p_state=UNDEFINED&#10;demand_mshr_reserve=1&#10;eventq_index=0&#10;is_read_only=true&#10;max_miss_count=0&#10;mshrs=4&#10;p_state_clk_gate_bins=20&#10;p_state_clk_gate_max=1000000000000&#10;p_state_clk_gate_min=1000&#10;power_model=&#10;prefetch_on_access=false&#10;prefetcher=Null&#10;&#13;eplacement_policy=system.cpu.icache.replacement_policy&#10;&#13;esponse_latency=2&#10;sequential_access=false&#10;size=262144&#10;system=system&#10;tag_latency=2&#10;tags=system.cpu.icache.tags&#10;tgts_per_mshr=20&#10;warmup_percentage=0&#10;write_allocator=Null&#10;write_buffers=8&#10;writeback_clean=true">
<path fill="#bab6ae" stroke="#000000" d="M405,-32C405,-32 575,-32 575,-32 581,-32 587,-38 587,-44 587,-44 587,-111 587,-111 587,-117 581,-123 575,-123 575,-123 405,-123 405,-123 399,-123 393,-117 393,-111 393,-111 393,-44 393,-44 393,-38 399,-32 405,-32"/>
<text text-anchor="middle" x="490" y="-107.8" font-family="Arial" font-size="14.00" fill="#000000">icache </text>
<text text-anchor="middle" x="490" y="-92.8" font-family="Arial" font-size="14.00" fill="#000000">: L1_ICache</text>
</a>
</g>
</g>
<g id="clust26" class="cluster">
<title>cluster_system_cpu_dtb</title>
<g id="a_clust26"><a xlink:title="eventq_index=0&#10;is_stage2=false&#10;size=64&#10;sys=system&#10;walker=system.cpu.dtb.walker">
<path fill="#bab6ae" stroke="#000000" d="M774,-155C774,-155 895,-155 895,-155 901,-155 907,-161 907,-167 907,-167 907,-288 907,-288 907,-294 901,-300 895,-300 895,-300 774,-300 774,-300 768,-300 762,-294 762,-288 762,-288 762,-167 762,-167 762,-161 768,-155 774,-155"/>
<text text-anchor="middle" x="834.5" y="-284.8" font-family="Arial" font-size="14.00" fill="#000000">dtb </text>
<text text-anchor="middle" x="834.5" y="-269.8" font-family="Arial" font-size="14.00" fill="#000000">: ArmDTB</text>
</a>
</g>
</g>
<g id="clust27" class="cluster">
<title>cluster_system_cpu_dtb_walker</title>
<g id="a_clust27"><a xlink:title="clk_domain=system.cpu_clk_domain&#10;default_p_state=UNDEFINED&#10;eventq_index=0&#10;is_stage2=false&#10;&#10;um_squash_per_cycle=2&#10;p_state_clk_gate_bins=20&#10;p_state_clk_gate_max=1000000000000&#10;p_state_clk_gate_min=1000&#10;power_model=&#10;sys=system">
<path fill="#9f9c95" stroke="#000000" d="M782,-163C782,-163 887,-163 887,-163 893,-163 899,-169 899,-175 899,-175 899,-242 899,-242 899,-248 893,-254 887,-254 887,-254 782,-254 782,-254 776,-254 770,-248 770,-242 770,-242 770,-175 770,-175 770,-169 776,-163 782,-163"/>
<text text-anchor="middle" x="834.5" y="-238.8" font-family="Arial" font-size="14.00" fill="#000000">walker </text>
<text text-anchor="middle" x="834.5" y="-223.8" font-family="Arial" font-size="14.00" fill="#000000">: ArmTableWalker</text>
</a>
</g>
</g>
<g id="clust32" class="cluster">
<title>cluster_system_cpu_itb</title>
<g id="a_clust32"><a xlink:title="eventq_index=0&#10;is_stage2=false&#10;size=64&#10;sys=system&#10;walker=system.cpu.itb.walker">
<path fill="#bab6ae" stroke="#000000" d="M621,-155C621,-155 742,-155 742,-155 748,-155 754,-161 754,-167 754,-167 754,-288 754,-288 754,-294 748,-300 742,-300 742,-300 621,-300 621,-300 615,-300 609,-294 609,-288 609,-288 609,-167 609,-167 609,-161 615,-155 621,-155"/>
<text text-anchor="middle" x="681.5" y="-284.8" font-family="Arial" font-size="14.00" fill="#000000">itb </text>
<text text-anchor="middle" x="681.5" y="-269.8" font-family="Arial" font-size="14.00" fill="#000000">: ArmITB</text>
</a>
</g>
</g>
<g id="clust33" class="cluster">
<title>cluster_system_cpu_itb_walker</title>
<g id="a_clust33"><a xlink:title="clk_domain=system.cpu_clk_domain&#10;default_p_state=UNDEFINED&#10;eventq_index=0&#10;is_stage2=false&#10;&#10;um_squash_per_cycle=2&#10;p_state_clk_gate_bins=20&#10;p_state_clk_gate_max=1000000000000&#10;p_state_clk_gate_min=1000&#10;power_model=&#10;sys=system">
<path fill="#9f9c95" stroke="#000000" d="M629,-163C629,-163 734,-163 734,-163 740,-163 746,-169 746,-175 746,-175 746,-242 746,-242 746,-248 740,-254 734,-254 734,-254 629,-254 629,-254 623,-254 617,-248 617,-242 617,-242 617,-175 617,-175 617,-169 623,-163 629,-163"/>
<text text-anchor="middle" x="681.5" y="-238.8" font-family="Arial" font-size="14.00" fill="#000000">walker </text>
<text text-anchor="middle" x="681.5" y="-223.8" font-family="Arial" font-size="14.00" fill="#000000">: ArmTableWalker</text>
</a>
</g>
</g>
<g id="clust38" class="cluster">
<title>cluster_system_cpu_dcache</title>
<g id="a_clust38"><a xlink:title="addr_ranges=0:18446744073709551615&#10;assoc=1&#10;clk_domain=system.cpu_clk_domain&#10;clusivity=mostly_incl&#10;compressor=Null&#10;data_latency=2&#10;default_p_state=UNDEFINED&#10;demand_mshr_reserve=1&#10;eventq_index=0&#10;is_read_only=false&#10;max_miss_count=0&#10;mshrs=4&#10;p_state_clk_gate_bins=20&#10;p_state_clk_gate_max=1000000000000&#10;p_state_clk_gate_min=1000&#10;power_model=&#10;prefetch_on_access=false&#10;prefetcher=Null&#10;&#13;eplacement_policy=system.cpu.dcache.replacement_policy&#10;&#13;esponse_latency=2&#10;sequential_access=false&#10;size=65536&#10;system=system&#10;tag_latency=2&#10;tags=system.cpu.dcache.tags&#10;tgts_per_mshr=20&#10;warmup_percentage=0&#10;write_allocator=Null&#10;write_buffers=8&#10;writeback_clean=false">
<path fill="#bab6ae" stroke="#000000" d="M666,-32C666,-32 836,-32 836,-32 842,-32 848,-38 848,-44 848,-44 848,-111 848,-111 848,-117 842,-123 836,-123 836,-123 666,-123 666,-123 660,-123 654,-117 654,-111 654,-111 654,-44 654,-44 654,-38 660,-32 666,-32"/>
<text text-anchor="middle" x="751" y="-107.8" font-family="Arial" font-size="14.00" fill="#000000">dcache </text>
<text text-anchor="middle" x="751" y="-92.8" font-family="Arial" font-size="14.00" fill="#000000">: L1_DCache</text>
</a>
</g>
</g>
<!-- system_system_port -->
<g id="node1" class="node">
<title>system_system_port</title>
<path fill="#b6b8bc" stroke="#000000" d="M174,-493.5C174,-493.5 246,-493.5 246,-493.5 252,-493.5 258,-499.5 258,-505.5 258,-505.5 258,-517.5 258,-517.5 258,-523.5 252,-529.5 246,-529.5 246,-529.5 174,-529.5 174,-529.5 168,-529.5 162,-523.5 162,-517.5 162,-517.5 162,-505.5 162,-505.5 162,-499.5 168,-493.5 174,-493.5"/>
<text text-anchor="middle" x="210" y="-507.8" font-family="Arial" font-size="14.00" fill="#000000">system_port</text>
</g>
<!-- system_membus_slave -->
<g id="node3" class="node">
<title>system_membus_slave</title>
<path fill="#586070" stroke="#000000" d="M195,-362.5C195,-362.5 225,-362.5 225,-362.5 231,-362.5 237,-368.5 237,-374.5 237,-374.5 237,-386.5 237,-386.5 237,-392.5 231,-398.5 225,-398.5 225,-398.5 195,-398.5 195,-398.5 189,-398.5 183,-392.5 183,-386.5 183,-386.5 183,-374.5 183,-374.5 183,-368.5 189,-362.5 195,-362.5"/>
<text text-anchor="middle" x="210" y="-376.8" font-family="Arial" font-size="14.00" fill="#000000">slave</text>
</g>
<!-- system_system_port&#45;&gt;system_membus_slave -->
<g id="edge1" class="edge">
<title>system_system_port&#45;&gt;system_membus_slave</title>
<path fill="none" stroke="#000000" d="M210,-493.285C210,-471.3856 210,-434.3861 210,-408.7663"/>
<polygon fill="#000000" stroke="#000000" points="213.5001,-408.5603 210,-398.5603 206.5001,-408.5603 213.5001,-408.5603"/>
</g>
<!-- system_membus_master -->
<g id="node2" class="node">
<title>system_membus_master</title>
<path fill="#586070" stroke="#000000" d="M115.5,-362.5C115.5,-362.5 152.5,-362.5 152.5,-362.5 158.5,-362.5 164.5,-368.5 164.5,-374.5 164.5,-374.5 164.5,-386.5 164.5,-386.5 164.5,-392.5 158.5,-398.5 152.5,-398.5 152.5,-398.5 115.5,-398.5 115.5,-398.5 109.5,-398.5 103.5,-392.5 103.5,-386.5 103.5,-386.5 103.5,-374.5 103.5,-374.5 103.5,-368.5 109.5,-362.5 115.5,-362.5"/>
<text text-anchor="middle" x="134" y="-376.8" font-family="Arial" font-size="14.00" fill="#000000">master</text>
</g>
<!-- system_mem_ctrls_port -->
<g id="node8" class="node">
<title>system_mem_ctrls_port</title>
<path fill="#4b4746" stroke="#000000" d="M111,-171.5C111,-171.5 141,-171.5 141,-171.5 147,-171.5 153,-177.5 153,-183.5 153,-183.5 153,-195.5 153,-195.5 153,-201.5 147,-207.5 141,-207.5 141,-207.5 111,-207.5 111,-207.5 105,-207.5 99,-201.5 99,-195.5 99,-195.5 99,-183.5 99,-183.5 99,-177.5 105,-171.5 111,-171.5"/>
<text text-anchor="middle" x="126" y="-185.8" font-family="Arial" font-size="14.00" fill="#000000">port</text>
</g>
<!-- system_membus_master&#45;&gt;system_mem_ctrls_port -->
<g id="edge2" class="edge">
<title>system_membus_master&#45;&gt;system_mem_ctrls_port</title>
<path fill="none" stroke="#000000" d="M133.2329,-362.1861C131.8322,-328.7443 128.8518,-257.586 127.1872,-217.8441"/>
<polygon fill="#000000" stroke="#000000" points="130.6803,-217.6032 126.7648,-207.7584 123.6864,-217.8962 130.6803,-217.6032"/>
</g>
<!-- system_l2_mem_side -->
<g id="node6" class="node">
<title>system_l2_mem_side</title>
<path fill="#94918b" stroke="#000000" d="M189,-171.5C189,-171.5 249,-171.5 249,-171.5 255,-171.5 261,-177.5 261,-183.5 261,-183.5 261,-195.5 261,-195.5 261,-201.5 255,-207.5 249,-207.5 249,-207.5 189,-207.5 189,-207.5 183,-207.5 177,-201.5 177,-195.5 177,-195.5 177,-183.5 177,-183.5 177,-177.5 183,-171.5 189,-171.5"/>
<text text-anchor="middle" x="219" y="-185.8" font-family="Arial" font-size="14.00" fill="#000000">mem_side</text>
</g>
<!-- system_membus_slave&#45;&gt;system_l2_mem_side -->
<g id="edge3" class="edge">
<title>system_membus_slave&#45;&gt;system_l2_mem_side</title>
<path fill="none" stroke="#000000" d="M211.3387,-352.09C213.213,-312.3133 216.5658,-241.1585 218.1397,-207.7584"/>
<polygon fill="#000000" stroke="#000000" points="207.8376,-352.0324 210.863,-362.1861 214.8299,-352.362 207.8376,-352.0324"/>
</g>
<!-- system_tol2bus_master -->
<g id="node4" class="node">
<title>system_tol2bus_master</title>
<path fill="#586070" stroke="#000000" d="M586.5,-362.5C586.5,-362.5 623.5,-362.5 623.5,-362.5 629.5,-362.5 635.5,-368.5 635.5,-374.5 635.5,-374.5 635.5,-386.5 635.5,-386.5 635.5,-392.5 629.5,-398.5 623.5,-398.5 623.5,-398.5 586.5,-398.5 586.5,-398.5 580.5,-398.5 574.5,-392.5 574.5,-386.5 574.5,-386.5 574.5,-374.5 574.5,-374.5 574.5,-368.5 580.5,-362.5 586.5,-362.5"/>
<text text-anchor="middle" x="605" y="-376.8" font-family="Arial" font-size="14.00" fill="#000000">master</text>
</g>
<!-- system_l2_cpu_side -->
<g id="node7" class="node">
<title>system_l2_cpu_side</title>
<path fill="#94918b" stroke="#000000" d="M291,-171.5C291,-171.5 343,-171.5 343,-171.5 349,-171.5 355,-177.5 355,-183.5 355,-183.5 355,-195.5 355,-195.5 355,-201.5 349,-207.5 343,-207.5 343,-207.5 291,-207.5 291,-207.5 285,-207.5 279,-201.5 279,-195.5 279,-195.5 279,-183.5 279,-183.5 279,-177.5 285,-171.5 291,-171.5"/>
<text text-anchor="middle" x="317" y="-185.8" font-family="Arial" font-size="14.00" fill="#000000">cpu_side</text>
</g>
<!-- system_tol2bus_master&#45;&gt;system_l2_cpu_side -->
<g id="edge4" class="edge">
<title>system_tol2bus_master&#45;&gt;system_l2_cpu_side</title>
<path fill="none" stroke="#000000" d="M574.2802,-379.9105C517.5954,-378.2082 399.5447,-371.6014 369,-346 330.9194,-314.0823 320.5721,-253.5167 317.8571,-217.8135"/>
<polygon fill="#000000" stroke="#000000" points="321.3361,-217.3605 317.2372,-207.5906 314.3489,-217.7842 321.3361,-217.3605"/>
</g>
<!-- system_tol2bus_slave -->
<g id="node5" class="node">
<title>system_tol2bus_slave</title>
<path fill="#586070" stroke="#000000" d="M666,-362.5C666,-362.5 696,-362.5 696,-362.5 702,-362.5 708,-368.5 708,-374.5 708,-374.5 708,-386.5 708,-386.5 708,-392.5 702,-398.5 696,-398.5 696,-398.5 666,-398.5 666,-398.5 660,-398.5 654,-392.5 654,-386.5 654,-386.5 654,-374.5 654,-374.5 654,-368.5 660,-362.5 666,-362.5"/>
<text text-anchor="middle" x="681" y="-376.8" font-family="Arial" font-size="14.00" fill="#000000">slave</text>
</g>
<!-- system_cpu_icache_mem_side -->
<g id="node11" class="node">
<title>system_cpu_icache_mem_side</title>
<path fill="#94918b" stroke="#000000" d="M413,-40.5C413,-40.5 473,-40.5 473,-40.5 479,-40.5 485,-46.5 485,-52.5 485,-52.5 485,-64.5 485,-64.5 485,-70.5 479,-76.5 473,-76.5 473,-76.5 413,-76.5 413,-76.5 407,-76.5 401,-70.5 401,-64.5 401,-64.5 401,-52.5 401,-52.5 401,-46.5 407,-40.5 413,-40.5"/>
<text text-anchor="middle" x="443" y="-54.8" font-family="Arial" font-size="14.00" fill="#000000">mem_side</text>
</g>
<!-- system_tol2bus_slave&#45;&gt;system_cpu_icache_mem_side -->
<g id="edge5" class="edge">
<title>system_tol2bus_slave&#45;&gt;system_cpu_icache_mem_side</title>
<path fill="none" stroke="#000000" d="M652.2043,-357.1376C649.852,-355.9125 647.4392,-354.8421 645,-354 631.1299,-349.2116 391.2173,-356.5316 381,-346 366.2226,-330.7681 375.0223,-175.3629 381,-155 389.8623,-124.8109 411.4023,-95.1276 426.5951,-76.8255"/>
<polygon fill="#000000" stroke="#000000" points="650.5496,-360.2287 660.9036,-362.4747 654.2102,-354.262 650.5496,-360.2287"/>
</g>
<!-- system_cpu_dtb_walker_port -->
<g id="node13" class="node">
<title>system_cpu_dtb_walker_port</title>
<path fill="#7f7c77" stroke="#000000" d="M790,-171.5C790,-171.5 820,-171.5 820,-171.5 826,-171.5 832,-177.5 832,-183.5 832,-183.5 832,-195.5 832,-195.5 832,-201.5 826,-207.5 820,-207.5 820,-207.5 790,-207.5 790,-207.5 784,-207.5 778,-201.5 778,-195.5 778,-195.5 778,-183.5 778,-183.5 778,-177.5 784,-171.5 790,-171.5"/>
<text text-anchor="middle" x="805" y="-185.8" font-family="Arial" font-size="14.00" fill="#000000">port</text>
</g>
<!-- system_tol2bus_slave&#45;&gt;system_cpu_dtb_walker_port -->
<g id="edge8" class="edge">
<title>system_tol2bus_slave&#45;&gt;system_cpu_dtb_walker_port</title>
<path fill="none" stroke="#000000" d="M717.2616,-368.6508C729.0173,-363.3039 741.2642,-355.9091 750,-346 785.9949,-305.1706 798.8193,-239.3266 803.0666,-207.6581"/>
<polygon fill="#000000" stroke="#000000" points="715.8966,-365.4279 708.0156,-372.5089 718.5922,-371.8881 715.8966,-365.4279"/>
</g>
<!-- system_cpu_itb_walker_port -->
<g id="node14" class="node">
<title>system_cpu_itb_walker_port</title>
<path fill="#7f7c77" stroke="#000000" d="M666,-171.5C666,-171.5 696,-171.5 696,-171.5 702,-171.5 708,-177.5 708,-183.5 708,-183.5 708,-195.5 708,-195.5 708,-201.5 702,-207.5 696,-207.5 696,-207.5 666,-207.5 666,-207.5 660,-207.5 654,-201.5 654,-195.5 654,-195.5 654,-183.5 654,-183.5 654,-177.5 660,-171.5 666,-171.5"/>
<text text-anchor="middle" x="681" y="-185.8" font-family="Arial" font-size="14.00" fill="#000000">port</text>
</g>
<!-- system_tol2bus_slave&#45;&gt;system_cpu_itb_walker_port -->
<g id="edge7" class="edge">
<title>system_tol2bus_slave&#45;&gt;system_cpu_itb_walker_port</title>
<path fill="none" stroke="#000000" d="M681,-352.09C681,-312.3133 681,-241.1585 681,-207.7584"/>
<polygon fill="#000000" stroke="#000000" points="677.5001,-352.1861 681,-362.1861 684.5001,-352.1862 677.5001,-352.1861"/>
</g>
<!-- system_cpu_dcache_mem_side -->
<g id="node15" class="node">
<title>system_cpu_dcache_mem_side</title>
<path fill="#94918b" stroke="#000000" d="M768,-40.5C768,-40.5 828,-40.5 828,-40.5 834,-40.5 840,-46.5 840,-52.5 840,-52.5 840,-64.5 840,-64.5 840,-70.5 834,-76.5 828,-76.5 828,-76.5 768,-76.5 768,-76.5 762,-76.5 756,-70.5 756,-64.5 756,-64.5 756,-52.5 756,-52.5 756,-46.5 762,-40.5 768,-40.5"/>
<text text-anchor="middle" x="798" y="-54.8" font-family="Arial" font-size="14.00" fill="#000000">mem_side</text>
</g>
<!-- system_tol2bus_slave&#45;&gt;system_cpu_dcache_mem_side -->
<g id="edge6" class="edge">
<title>system_tol2bus_slave&#45;&gt;system_cpu_dcache_mem_side</title>
<path fill="none" stroke="#000000" d="M718.311,-377.3313C778.4091,-371.8462 891.1511,-359.8325 903,-346 958.2247,-281.5302 937.1314,-232.725 903,-155 887.9684,-120.7697 854.1383,-93.3466 828.9157,-76.6096"/>
<polygon fill="#000000" stroke="#000000" points="717.736,-373.8687 708.0884,-378.2477 718.361,-380.8408 717.736,-373.8687"/>
</g>
<!-- system_cpu_icache_port -->
<g id="node9" class="node">
<title>system_cpu_icache_port</title>
<path fill="#959ead" stroke="#000000" d="M405,-171.5C405,-171.5 473,-171.5 473,-171.5 479,-171.5 485,-177.5 485,-183.5 485,-183.5 485,-195.5 485,-195.5 485,-201.5 479,-207.5 473,-207.5 473,-207.5 405,-207.5 405,-207.5 399,-207.5 393,-201.5 393,-195.5 393,-195.5 393,-183.5 393,-183.5 393,-177.5 399,-171.5 405,-171.5"/>
<text text-anchor="middle" x="439" y="-185.8" font-family="Arial" font-size="14.00" fill="#000000">icache_port</text>
</g>
<!-- system_cpu_icache_cpu_side -->
<g id="node12" class="node">
<title>system_cpu_icache_cpu_side</title>
<path fill="#94918b" stroke="#000000" d="M515,-40.5C515,-40.5 567,-40.5 567,-40.5 573,-40.5 579,-46.5 579,-52.5 579,-52.5 579,-64.5 579,-64.5 579,-70.5 573,-76.5 567,-76.5 567,-76.5 515,-76.5 515,-76.5 509,-76.5 503,-70.5 503,-64.5 503,-64.5 503,-52.5 503,-52.5 503,-46.5 509,-40.5 515,-40.5"/>
<text text-anchor="middle" x="541" y="-54.8" font-family="Arial" font-size="14.00" fill="#000000">cpu_side</text>
</g>
<!-- system_cpu_icache_port&#45;&gt;system_cpu_icache_cpu_side -->
<g id="edge9" class="edge">
<title>system_cpu_icache_port&#45;&gt;system_cpu_icache_cpu_side</title>
<path fill="none" stroke="#000000" d="M454.4801,-171.3982C465.673,-158.1627 481.0417,-139.6837 494,-123 503.6432,-110.5845 513.9708,-96.5044 522.482,-84.674"/>
<polygon fill="#000000" stroke="#000000" points="525.3488,-86.6821 528.3226,-76.5132 519.6564,-82.6081 525.3488,-86.6821"/>
</g>
<!-- system_cpu_dcache_port -->
<g id="node10" class="node">
<title>system_cpu_dcache_port</title>
<path fill="#959ead" stroke="#000000" d="M515,-171.5C515,-171.5 589,-171.5 589,-171.5 595,-171.5 601,-177.5 601,-183.5 601,-183.5 601,-195.5 601,-195.5 601,-201.5 595,-207.5 589,-207.5 589,-207.5 515,-207.5 515,-207.5 509,-207.5 503,-201.5 503,-195.5 503,-195.5 503,-183.5 503,-183.5 503,-177.5 509,-171.5 515,-171.5"/>
<text text-anchor="middle" x="552" y="-185.8" font-family="Arial" font-size="14.00" fill="#000000">dcache_port</text>
</g>
<!-- system_cpu_dcache_cpu_side -->
<g id="node16" class="node">
<title>system_cpu_dcache_cpu_side</title>
<path fill="#94918b" stroke="#000000" d="M674,-40.5C674,-40.5 726,-40.5 726,-40.5 732,-40.5 738,-46.5 738,-52.5 738,-52.5 738,-64.5 738,-64.5 738,-70.5 732,-76.5 726,-76.5 726,-76.5 674,-76.5 674,-76.5 668,-76.5 662,-70.5 662,-64.5 662,-64.5 662,-52.5 662,-52.5 662,-46.5 668,-40.5 674,-40.5"/>
<text text-anchor="middle" x="700" y="-54.8" font-family="Arial" font-size="14.00" fill="#000000">cpu_side</text>
</g>
<!-- system_cpu_dcache_port&#45;&gt;system_cpu_dcache_cpu_side -->
<g id="edge10" class="edge">
<title>system_cpu_dcache_port&#45;&gt;system_cpu_dcache_cpu_side</title>
<path fill="none" stroke="#000000" d="M572.5788,-171.285C598.4246,-148.4079 642.8873,-109.0525 671.8625,-83.4055"/>
<polygon fill="#000000" stroke="#000000" points="674.4277,-85.8091 679.596,-76.5603 669.7882,-80.5674 674.4277,-85.8091"/>
</g>
</g>
</svg>
